<svg xmlns="http://www.w3.org/2000/svg" width="20" height="17" viewBox="0 0 20 17">
    <g fill="none" fill-rule="evenodd">
        <path d="M0 0H20V20H0z" transform="translate(0 -2)"/>
        <g fill="#FFF" fill-rule="nonzero">
            <path d="M10.284 8.335c-.166-.134-.402-.134-.568 0l-2.273 1.83c-.196.158-.228.446-.07.644.156.197.442.23.638.071l1.534-1.235v6.368c0 .253.204.458.455.458s.455-.205.455-.458V9.645l1.534 1.235c.196.158.482.126.639-.071.157-.198.125-.486-.071-.644l-2.273-1.83z" transform="translate(0 -2) translate(0 2.353)"/>
            <path d="M16.364 5.49l-.071.001c-.4-2.797-2.574-5-5.351-5.42-2.777-.42-5.498 1.043-6.696 3.6C1.8 3.833-.077 5.92.004 8.385c.081 2.466 2.09 4.424 4.541 4.424H5c.251 0 .455-.204.455-.457s-.204-.458-.455-.458h-.455c-2.008 0-3.636-1.638-3.636-3.66 0-2.021 1.628-3.66 3.636-3.66.184 0 .35-.11.42-.281.971-2.35 3.421-3.72 5.917-3.306 2.495.413 4.38 2.5 4.553 5.04.009.127.07.245.17.325.1.08.228.115.354.095.133-.025.269-.039.405-.043 1.506 0 2.727 1.23 2.727 2.745 0 1.516-1.221 2.745-2.727 2.745H15c-.251 0-.455.205-.455.458s.204.457.455.457h1.364c2.008 0 3.636-1.638 3.636-3.66 0-2.021-1.628-3.66-3.636-3.66z" transform="translate(0 -2) translate(0 2.353)"/>
        </g>
    </g>
</svg>
