<svg xmlns="http://www.w3.org/2000/svg" width="38" height="38" viewBox="0 0 38 38">
    <g fill="none" fill-rule="evenodd">
        <g>
            <g transform="translate(-39 -118) translate(39 118)">
                <circle cx="19" cy="19" r="19" fill="#393E4F"/>
                <g>
                    <path stroke="#1FAEFA" stroke-linecap="round" stroke-linejoin="round" d="M12.709 10.96V14c0 .736-.607 1.334-1.356 1.334h-8.14L.5 18V7.334C.5 6.597 1.108 6 1.857 6h3.03" transform="translate(9 10)"/>
                    <path stroke="#1FAEFA" stroke-linecap="round" stroke-linejoin="round" d="M5.195 9.334c0 .859.701 1.555 1.565 1.555h9.392L19.282 14V1.556c0-.86-.7-1.556-1.565-1.556H6.76c-.864 0-1.565.697-1.565 1.556v7.778z" transform="translate(9 10)"/>
                    <path fill="#1FAEFA" d="M12.42 8.158c0 .261-.212.473-.473.473-.26 0-.473-.212-.473-.473 0-.26.212-.473.473-.473s.473.212.473.473M13.577 2.269c-.376-.354-.878-.53-1.505-.53-.678 0-1.21.206-1.6.619-.386.413-.581.908-.581 1.586 0 .232.188.42.42.42.232 0 .419-.188.419-.42.016-.408.082-.67.198-.886.205-.39.575-.584 1.11-.584.435 0 .745.113.932.339.188.227.282.494.282.8 0 .22-.065.433-.196.637-.072.117-.166.228-.281.335l-.384.372c-.37.355-.606.67-.713.946-.104.267-.157.505-.16.963.009.224.19.404.416.404.208 0 .373-.156.414-.376.013-.081.008-.166.014-.25.005-.072.013-.145.027-.217.02-.116.058-.23.107-.336.093-.202.293-.45.602-.742.423-.402.703-.707.84-.914.136-.208.204-.478.204-.811 0-.55-.188-1.001-.565-1.355" transform="translate(9 10)"/>
                </g>
            </g>
        </g>
    </g>
</svg>
