<svg xmlns="http://www.w3.org/2000/svg" width="18" height="18" viewBox="0 0 18 18">
    <g fill="#FFF">
        <path d="M17.5 10c-.276 0-.5.224-.5.5V17H1V1h6.5c.276 0 .5-.224.5-.5S7.776 0 7.5 0h-7C.224 0 0 .224 0 .5v17c0 .276.224.5.5.5h17c.276 0 .5-.224.5-.5v-7c0-.276-.224-.5-.5-.5z"/>
        <path d="M17.5 0h-4.996c-.276 0-.5.224-.5.5s.224.5.5.5h3.79L10.153 7.14c-.13.125-.182.311-.137.486.046.175.182.311.357.357.175.045.36-.007.486-.137l6.142-6.141v3.79c0 .276.223.5.5.5.275 0 .499-.224.499-.5V.5c0-.276-.224-.5-.5-.5z"/>
    </g>
</svg>
