<svg xmlns="http://www.w3.org/2000/svg" width="20" height="20" viewBox="0 0 20 20">
    <g fill="none" fill-rule="evenodd">
        <g>
            <g>
                <path d="M0 0H20V20H0z" transform="translate(-1866 -59) translate(1866 59)"/>
                <g fill="#1DB6FF" fill-rule="nonzero">
                    <path d="M5.722-.5l-.224.004C2.146-.366-.5 2.51-.5 6.01c0 2.125.982 4.081 2.605 5.296.263.218.365 1.08.258 2.172-.028.294.203.548.498.548h5.722c.296 0 .526-.254.498-.548-.106-1.093-.005-1.954.277-2.186 1.605-1.2 2.586-3.157 2.586-5.282 0-3.59-2.78-6.509-6.222-6.509zM5.527.504L5.722.5c2.879 0 5.222 2.461 5.222 5.509 0 1.81-.832 3.47-2.204 4.496l-.112.102c-.461.467-.618 1.243-.59 2.24l.008.178H3.398l.008-.177c.03-1.075-.15-1.889-.683-2.329C1.333 9.48.5 7.82.5 6.01.5 3.038 2.732.612 5.527.504zM8.323 15.16c.276 0 .5.223.5.5 0 .245-.177.449-.41.491l-.09.008H3.121c-.276 0-.5-.224-.5-.5 0-.245.177-.45.41-.492l.09-.008h5.202zM7.283 17.24c.276 0 .5.224.5.5 0 .246-.177.45-.41.492l-.09.008H4.162c-.277 0-.5-.224-.5-.5 0-.245.176-.45.41-.492l.09-.008h3.12z" transform="translate(-1866 -59) translate(1866 59) translate(4.3 1)"/>
                </g>
            </g>
        </g>
    </g>
</svg>
